<svg width="64" height="52" viewBox="0 0 64 52" fill="none" xmlns="http://www.w3.org/2000/svg">
<path d="M36.8248 27.8611L54.3927 2.81431V27.8611H56.0231V0.0733032H54.5404L35.013 27.8611H36.8248Z" fill="black"/>
<path d="M9.42034 27.8611V2.81431L26.9864 27.8611H28.8729L9.34555 0.0733032H7.78807V27.8611H9.42034Z" fill="black"/>
<path d="M9.42034 41.2707H7.78994V51.9374H9.42034V41.2707Z" fill="black"/>
<path d="M56.0231 41.2707H54.3927V51.9374H56.0231V41.2707Z" fill="black"/>
<path d="M0.572822 34.0349C0.597129 33.9152 0.694354 33.8479 0.866368 33.8479C1.03838 33.8479 1.10943 33.9339 1.08513 34.1041L0.898154 35.052L1.5189 34.6145C1.7682 34.4437 2.02373 34.2792 2.28549 34.1209C2.5428 33.9682 2.81088 33.8345 3.0876 33.7208C3.31826 33.6189 3.56659 33.563 3.81866 33.5562C4.20756 33.5562 4.4207 33.6834 4.45623 33.9395C4.49397 34.1989 4.51272 34.4608 4.51232 34.7229C4.51232 34.8949 4.51232 35.0408 4.52915 35.1623C4.54598 35.2838 4.58524 35.3493 4.65816 35.3493C5.05518 35.3275 5.44202 35.2157 5.78934 35.0221C6.22685 34.8015 6.66312 34.5578 7.09814 34.291C7.56059 34.0243 8.00433 33.7868 8.42938 33.5787C8.76163 33.3986 9.12918 33.2934 9.50634 33.2702C9.68246 33.2597 9.85888 33.2849 10.025 33.3444C10.1911 33.4038 10.3435 33.4962 10.473 33.6161C10.7221 33.8689 10.948 34.1436 11.148 34.4369C11.3471 34.7097 11.5605 34.9719 11.7874 35.2221C11.9109 35.3525 12.0614 35.4544 12.2284 35.5206C12.3953 35.5868 12.5747 35.6157 12.754 35.6054C13.2248 35.5958 13.6906 35.5073 14.132 35.3437C14.6306 35.1729 15.1055 34.9859 15.5568 34.7828C16.0055 34.5752 16.3963 34.3808 16.7235 34.1975C17.0507 34.0143 17.2526 33.9003 17.3274 33.8516C17.3501 33.8283 17.3781 33.8108 17.4091 33.8006C17.44 33.7904 17.473 33.7879 17.5052 33.7932C17.5373 33.7985 17.5677 33.8116 17.5937 33.8312C17.6197 33.8508 17.6406 33.8764 17.6546 33.9059C17.699 33.9603 17.7202 34.0301 17.7135 34.1001C17.7069 34.1701 17.673 34.2347 17.6191 34.2798C17.5443 34.3284 17.3386 34.45 16.9983 34.6538C16.658 34.8576 16.2504 35.0557 15.7755 35.2745C15.2835 35.5008 14.7777 35.6956 14.261 35.8579C13.7785 36.0192 13.274 36.1056 12.7653 36.114C12.5399 36.128 12.3139 36.0965 12.101 36.0213C11.888 35.9461 11.6923 35.8289 11.5256 35.6765C11.2315 35.383 10.9626 35.0652 10.7217 34.7267C10.5525 34.4911 10.3696 34.2657 10.1738 34.0517C10.0902 33.9621 9.9884 33.8913 9.87521 33.8442C9.76203 33.7972 9.64009 33.7748 9.51756 33.7787C9.19109 33.8077 8.87348 33.9005 8.5827 34.0517C8.15915 34.2465 7.75045 34.4721 7.3599 34.7267C6.88695 35.0133 6.39955 35.2754 5.89965 35.512C5.51643 35.7158 5.09344 35.8339 4.66003 35.8579C4.31787 35.8579 4.12342 35.7438 4.07481 35.512C4.02346 35.2534 3.99902 34.9903 4.00189 34.7267C4.00189 34.5565 4.00189 34.4051 3.98506 34.2705C3.96823 34.1358 3.91775 34.0704 3.82053 34.0704C3.59648 34.0864 3.37845 34.1501 3.18108 34.2574C2.90624 34.3891 2.6385 34.5351 2.37897 34.6949C2.09851 34.865 1.81806 35.0483 1.5563 35.2427C1.29453 35.4372 1.04586 35.6073 0.827104 35.7531C0.608347 35.899 0.492425 35.9401 0.408288 35.899C0.365828 35.8734 0.333515 35.8339 0.31682 35.7872C0.300125 35.7406 0.300072 35.6895 0.316672 35.6428L0.572822 34.0349Z" fill="black"/>
<path d="M20.0273 34.0349C20.0065 34.0927 19.9656 34.1412 19.912 34.1714C19.8585 34.2016 19.7959 34.2115 19.7356 34.1994C19.7049 34.2007 19.6742 34.1953 19.6458 34.1836C19.6174 34.1719 19.5919 34.1541 19.5711 34.1315C19.5502 34.1089 19.5346 34.082 19.5252 34.0527C19.5159 34.0234 19.513 33.9924 19.5168 33.9619C19.5385 33.8516 19.5254 33.7373 19.4794 33.6347C19.4524 33.572 19.4056 33.5199 19.3462 33.4861C19.2868 33.4524 19.2181 33.4389 19.1504 33.4478C18.9334 33.4534 18.7208 33.5097 18.5296 33.6123C18.3068 33.7259 18.099 33.8665 17.9107 34.0311C17.7268 34.1891 17.5613 34.3672 17.4171 34.5621C17.2948 34.7121 17.2246 34.8978 17.2171 35.0913C17.2171 35.1885 17.2657 35.2315 17.3629 35.2184C17.4949 35.1912 17.6213 35.1419 17.7368 35.0726C17.9188 34.9721 18.0954 34.8623 18.266 34.7435C18.4693 34.6032 18.6641 34.4508 18.8493 34.2873C18.8949 34.2367 18.9515 34.1973 19.0147 34.172C19.0779 34.1467 19.1461 34.1362 19.2139 34.1414C19.3267 34.1765 19.4281 34.241 19.5075 34.3284C19.8194 34.6521 20.2087 34.8909 20.6387 35.0221C21.0049 35.138 21.3858 35.201 21.7698 35.2091C22.4517 35.1952 23.1255 35.059 23.7592 34.8071C24.4529 34.5494 25.1213 34.2283 25.7561 33.8479C25.9524 33.775 26.0795 33.8049 26.1394 33.9395C26.1701 33.998 26.178 34.0659 26.1614 34.1298C26.1448 34.1938 26.1049 34.2493 26.0496 34.2854C25.3802 34.6914 24.671 35.0278 23.9331 35.2894C23.2451 35.5551 22.5165 35.6999 21.7792 35.7176C21.3005 35.7185 20.825 35.6382 20.3732 35.4802C19.9094 35.3144 19.4821 35.0604 19.1148 34.7323C18.5053 35.3175 17.9519 35.6447 17.4545 35.7195C16.9572 35.7943 16.7066 35.5849 16.7066 35.0987C16.7185 34.8439 16.8007 34.5974 16.9441 34.3864C17.1075 34.1253 17.3106 33.8913 17.5461 33.6927C17.7921 33.4849 18.062 33.3073 18.3501 33.1636C18.597 33.0296 18.8715 32.9547 19.1522 32.9448C19.5411 32.9448 19.7917 33.0794 19.9001 33.3468C20.0003 33.5616 20.044 33.7984 20.0273 34.0349Z" fill="black"/>
<path d="M34.3437 33.8105C34.3761 33.795 34.4118 33.7878 34.4477 33.7895C34.4836 33.7912 34.5185 33.8018 34.5493 33.8204C34.58 33.8389 34.6057 33.8648 34.624 33.8957C34.6423 33.9266 34.6526 33.9616 34.6541 33.9975C34.6666 34.0298 34.6722 34.0643 34.6705 34.0989C34.6689 34.1335 34.6601 34.1674 34.6446 34.1984C34.6291 34.2294 34.6073 34.2568 34.5806 34.2789C34.5539 34.3009 34.5229 34.3172 34.4895 34.3266C32.7133 34.7878 30.9371 35.2863 29.1608 35.8223C29.1608 36.6001 28.9602 37.5188 28.5588 38.5783C28.1423 39.6634 27.5834 40.6883 26.8966 41.6259C26.2024 42.5879 25.3517 43.4266 24.38 44.1071C23.443 44.7763 22.3193 45.1341 21.1678 45.1298C20.4826 45.123 19.8274 44.8478 19.3429 44.3632C18.8584 43.8787 18.5832 43.2235 18.5764 42.5384C18.5774 41.7082 18.8751 40.9058 19.4159 40.276C20.0476 39.5276 20.795 38.8851 21.6296 38.3726C22.6421 37.7447 23.7113 37.2133 24.8231 36.7852C26.0272 36.3103 27.2861 35.8666 28.5999 35.454C28.5857 35.1734 28.511 34.8992 28.3812 34.65C28.0409 34.8682 27.7062 35.0751 27.3771 35.2708C27.0398 35.4676 26.6551 35.5684 26.2646 35.5624C26.0048 35.5714 25.7491 35.4945 25.5373 35.3437C25.4415 35.2721 25.3648 35.178 25.3139 35.0697C25.2631 34.9615 25.2396 34.8424 25.2456 34.7229C25.2456 34.3826 25.4283 34.0667 25.7935 33.775C26.1434 33.4884 26.5827 33.3336 27.035 33.3375C27.3134 33.3386 27.5901 33.3815 27.8558 33.4646C28.1451 33.5575 28.4037 33.7275 28.6037 33.9563C28.8435 33.8363 29.0938 33.7387 29.3515 33.6647C29.619 33.5915 29.8995 33.5794 30.1724 33.6291C30.3593 33.6778 30.4528 33.7806 30.4285 33.9395C30.4042 34.0984 30.3182 34.1639 30.1724 34.1396C29.7196 34.0709 29.257 34.1614 28.8636 34.3957C29.0073 34.6669 29.0938 34.9648 29.1178 35.2708C29.9904 35.004 30.8666 34.7485 31.7467 34.5042C32.6267 34.2599 33.4924 34.0286 34.3437 33.8105ZM21.1678 44.6156C21.8665 44.6164 22.5571 44.4665 23.1927 44.1762C23.8418 43.8819 24.4446 43.4946 24.982 43.0264C25.5359 42.5447 26.0316 42.0001 26.4591 41.4034C26.8871 40.8089 27.2715 40.184 27.609 39.5337C27.9243 38.9357 28.175 38.3058 28.3569 37.6547C28.5152 37.1009 28.6136 36.5317 28.6504 35.957C27.3852 36.3459 26.1743 36.7715 25.0175 37.234C23.9615 37.6462 22.9421 38.1466 21.9699 38.7297C21.1785 39.1937 20.4696 39.7857 19.8721 40.4817C19.3739 41.0467 19.0952 41.772 19.0868 42.5253C19.0969 43.074 19.3193 43.5975 19.7074 43.9856C20.0955 44.3737 20.619 44.5962 21.1678 44.6063V44.6156ZM26.2777 35.052C26.6168 35.0529 26.9502 34.9645 27.2444 34.7959C27.5473 34.6276 27.8464 34.4443 28.1381 34.2499C27.9839 34.1125 27.8041 34.0071 27.609 33.9395C27.4282 33.8787 27.2388 33.8477 27.0481 33.8479C26.7281 33.8416 26.4145 33.9372 26.1525 34.1209C26.0443 34.1824 25.9529 34.2694 25.8861 34.3743C25.8193 34.4793 25.7791 34.5989 25.7692 34.7229C25.7561 34.9417 25.93 35.052 26.2684 35.052H26.2777Z" fill="black"/>
<path d="M34.224 34.0349C34.2268 33.9995 34.2379 33.9654 34.2565 33.9352C34.2751 33.905 34.3007 33.8797 34.3311 33.8614C34.3614 33.8431 34.3957 33.8324 34.4311 33.83C34.4665 33.8277 34.5019 33.8338 34.5344 33.8479C34.6915 33.8965 34.7588 33.9825 34.7345 34.1041L34.5475 34.9791C35.0336 34.6388 35.5017 34.3347 35.9517 34.0667C36.4023 33.7993 36.7725 33.6647 37.0735 33.6647C37.3745 33.6647 37.6026 33.7563 37.7111 33.9395C37.815 34.1092 37.9068 34.286 37.9859 34.4687C38.0971 34.7086 38.2447 34.93 38.4234 35.1249C38.6179 35.3443 38.9706 35.454 39.4817 35.454C40.1569 35.4228 40.8253 35.3059 41.4711 35.1062C42.5999 34.7667 43.7028 34.3462 44.7711 33.8479C44.7997 33.834 44.8309 33.8262 44.8627 33.8251C44.8945 33.824 44.9262 33.8297 44.9557 33.8417C44.9851 33.8537 45.0117 33.8718 45.0337 33.8947C45.0557 33.9177 45.0726 33.9451 45.0834 33.975C45.0992 34.0011 45.1094 34.0302 45.1133 34.0604C45.1172 34.0906 45.1148 34.1213 45.1062 34.1505C45.0975 34.1797 45.0829 34.2068 45.0632 34.23C45.0435 34.2533 45.0192 34.2721 44.9917 34.2854C43.8723 34.798 42.7199 35.2353 41.5421 35.5942C40.8752 35.8041 40.1839 35.9266 39.4854 35.9588C39.2015 35.9673 38.918 35.9301 38.6459 35.8485C38.4437 35.7852 38.2571 35.6801 38.0981 35.54C37.9644 35.4208 37.8535 35.2782 37.7709 35.1193L37.5521 34.6818C37.4287 34.3415 37.2717 34.1714 37.0772 34.1714C36.7192 34.2036 36.3776 34.3365 36.0919 34.5547C35.7017 34.804 35.1178 35.2234 34.34 35.813C34.2669 35.8707 34.1769 35.9029 34.0838 35.9046C33.9623 35.9158 33.9137 35.8616 33.938 35.7401L34.224 34.0349Z" fill="black"/>
<path d="M44.6627 33.9938C44.7113 33.8722 44.8141 33.8348 44.973 33.8834C45.132 33.9321 45.1974 34.0181 45.1731 34.1396C45.0273 34.6282 45.0759 35.0177 45.3189 35.3082C45.4506 35.4565 45.6143 35.573 45.7977 35.6488C45.981 35.7246 46.1792 35.7577 46.3772 35.7457C46.8915 35.741 47.4044 35.6922 47.9104 35.5998C48.4837 35.4992 49.0505 35.365 49.6081 35.1979C50.184 35.0265 50.7506 34.8255 51.3058 34.5958C51.8328 34.3807 52.345 34.1309 52.839 33.8479C52.865 33.8241 52.896 33.8064 52.9298 33.796C52.9636 33.7857 52.9992 33.7831 53.0342 33.7882C53.0691 33.7934 53.1024 33.8064 53.1317 33.8261C53.161 33.8458 53.1856 33.8718 53.2035 33.9021C53.2255 33.9307 53.2411 33.9636 53.2493 33.9987C53.2575 34.0338 53.2582 34.0702 53.2513 34.1055C53.2445 34.1409 53.2301 34.1744 53.2093 34.2038C53.1885 34.2332 53.1617 34.2578 53.1306 34.2761C52.6153 34.5823 52.0785 34.851 51.5245 35.0801C50.9468 35.321 50.3556 35.5283 49.7539 35.7008C49.175 35.8704 48.587 36.0071 47.9926 36.1103C47.4622 36.2028 46.925 36.2516 46.3866 36.2561C45.706 36.2561 45.1955 36.0554 44.8553 35.6541C44.5037 35.2521 44.4402 34.7005 44.6627 33.9938ZM46.3772 30.9648C46.2314 31.0134 46.1341 30.9517 46.0855 30.7778C46.0369 30.604 46.0855 30.4992 46.2314 30.4506L47.2896 30.1945C47.4766 30.1459 47.6 30.2057 47.6374 30.3815C47.649 30.4162 47.6528 30.4531 47.6487 30.4895C47.6446 30.5259 47.6326 30.561 47.6136 30.5923C47.5946 30.6237 47.5689 30.6504 47.5385 30.6709C47.508 30.6913 47.4735 30.7048 47.4373 30.7105L46.3772 30.9648Z" fill="black"/>
<path d="M52.8016 34.0349C52.8043 33.9995 52.8154 33.9654 52.834 33.9352C52.8527 33.905 52.8782 33.8797 52.9086 33.8614C52.9389 33.8431 52.9732 33.8324 53.0086 33.83C53.044 33.8277 53.0794 33.8338 53.1119 33.8479C53.269 33.8965 53.3363 33.9825 53.312 34.1041L53.125 34.9791C53.6111 34.6388 54.0792 34.3347 54.5292 34.0667C54.9798 33.7993 55.35 33.6647 55.651 33.6647C55.952 33.6647 56.1801 33.7563 56.2886 33.9395C56.3925 34.1092 56.4844 34.286 56.5634 34.4687C56.674 34.709 56.8216 34.9304 57.0009 35.1249C57.1954 35.3443 57.5482 35.454 58.0592 35.454C58.7344 35.4228 59.4029 35.3059 60.0486 35.1062C61.1775 34.7667 62.2803 34.3462 63.3486 33.8479C63.3771 33.834 63.4082 33.8262 63.4399 33.8252C63.4715 33.8241 63.5031 33.8298 63.5324 33.8418C63.5617 33.8538 63.5882 33.8719 63.61 33.8949C63.6318 33.9178 63.6485 33.9452 63.659 33.975C63.6752 34.0009 63.6857 34.0299 63.6899 34.0601C63.6941 34.0903 63.6919 34.121 63.6835 34.1503C63.675 34.1796 63.6605 34.2067 63.6408 34.23C63.6211 34.2533 63.5967 34.2722 63.5693 34.2854C62.4497 34.7977 61.2973 35.235 60.1196 35.5942C59.4527 35.8041 58.7614 35.9266 58.0629 35.9588C57.779 35.9673 57.4955 35.9301 57.2234 35.8485C57.0212 35.7852 56.8346 35.6801 56.6756 35.54C56.5419 35.4208 56.4311 35.2782 56.3484 35.1193C56.2736 34.9735 56.2007 34.8276 56.1278 34.6818C56.0063 34.3415 55.8492 34.1714 55.6548 34.1714C55.2961 34.2036 54.9539 34.3364 54.6675 34.5547C54.2786 34.804 53.6953 35.2234 52.9175 35.813C52.8442 35.8703 52.7544 35.9024 52.6613 35.9046C52.5398 35.9158 52.4912 35.8616 52.5155 35.7401L52.8016 34.0349Z" fill="black"/>
</svg>
